<?xml version="1.0" encoding="UTF-8"?>
<svg xmlns="http://www.w3.org/2000/svg" xmlns:xlink="http://www.w3.org/1999/xlink" width="36px" height="36px" viewBox="0 0 36 53" version="1.1">
<g id="surface1">
<path style=" stroke:none;fill-rule:nonzero;fill:rgb(100%,100%,100%);fill-opacity:1;" d="M 14.574219 0.304688 C 14.757812 0.304688 14.941406 0.304688 15.128906 0.304688 C 15.515625 0.304688 15.902344 0.308594 16.285156 0.3125 C 16.875 0.320312 17.460938 0.316406 18.050781 0.3125 C 18.425781 0.316406 18.800781 0.316406 19.175781 0.320312 C 19.351562 0.320312 19.527344 0.316406 19.707031 0.316406 C 21.003906 0.335938 21.890625 0.582031 22.847656 1.503906 C 23.265625 2.457031 23.160156 3.148438 23.066406 4.171875 C 22.84375 6.273438 22.84375 6.273438 23.46875 8.226562 C 24.261719 9.039062 25.21875 9.585938 26.214844 10.125 C 26.945312 10.542969 27.578125 11.054688 28.226562 11.582031 C 28.464844 11.765625 28.699219 11.949219 28.933594 12.132812 C 29.042969 12.21875 29.15625 12.304688 29.269531 12.390625 C 29.566406 12.621094 29.867188 12.847656 30.167969 13.074219 C 32.484375 14.835938 34.097656 16.671875 34.550781 19.570312 C 34.609375 20.425781 34.609375 21.28125 34.609375 22.140625 C 34.609375 22.390625 34.609375 22.644531 34.613281 22.902344 C 34.613281 23.585938 34.613281 24.273438 34.613281 24.957031 C 34.613281 25.53125 34.613281 26.105469 34.617188 26.679688 C 34.617188 28.035156 34.617188 29.386719 34.617188 30.742188 C 34.617188 32.136719 34.617188 33.53125 34.621094 34.921875 C 34.625 36.125 34.628906 37.324219 34.625 38.523438 C 34.625 39.238281 34.628906 39.953125 34.628906 40.667969 C 34.632812 41.46875 34.632812 42.265625 34.628906 43.0625 C 34.628906 43.296875 34.632812 43.53125 34.632812 43.773438 C 34.617188 46.164062 34.042969 48.132812 32.34375 49.890625 C 31.066406 51.039062 29.585938 51.796875 27.839844 51.808594 C 27.566406 51.808594 27.566406 51.808594 27.285156 51.8125 C 27.089844 51.8125 26.890625 51.8125 26.683594 51.8125 C 26.472656 51.8125 26.261719 51.816406 26.046875 51.816406 C 25.347656 51.820312 24.652344 51.824219 23.953125 51.824219 C 23.714844 51.828125 23.476562 51.828125 23.230469 51.828125 C 21.964844 51.832031 20.703125 51.835938 19.441406 51.835938 C 18.136719 51.839844 16.835938 51.847656 15.53125 51.855469 C 14.53125 51.859375 13.527344 51.863281 12.523438 51.863281 C 12.042969 51.863281 11.5625 51.867188 11.082031 51.871094 C 10.410156 51.875 9.734375 51.875 9.0625 51.871094 C 8.867188 51.875 8.667969 51.878906 8.46875 51.878906 C 6.273438 51.863281 4.464844 51.035156 2.898438 49.535156 C 1.234375 47.609375 0.941406 45.519531 0.957031 43.0625 C 0.957031 42.683594 0.957031 42.683594 0.957031 42.296875 C 0.953125 41.609375 0.957031 40.925781 0.957031 40.238281 C 0.960938 39.519531 0.960938 38.796875 0.960938 38.078125 C 0.957031 36.867188 0.960938 35.660156 0.964844 34.449219 C 0.96875 33.054688 0.96875 31.660156 0.96875 30.265625 C 0.96875 28.917969 0.96875 27.570312 0.972656 26.222656 C 0.972656 25.652344 0.972656 25.082031 0.972656 24.511719 C 0.972656 23.714844 0.972656 22.914062 0.976562 22.117188 C 0.976562 21.882812 0.976562 21.648438 0.976562 21.40625 C 0.996094 18.488281 1.894531 16.429688 3.894531 14.277344 C 4.308594 13.894531 4.652344 13.667969 5.171875 13.453125 C 5.171875 13.320312 5.171875 13.183594 5.171875 13.046875 C 5.511719 12.714844 5.511719 12.714844 5.960938 12.34375 C 6.585938 11.828125 6.585938 11.828125 7.167969 11.269531 C 7.449219 11.007812 7.449219 11.007812 7.863281 11.007812 C 7.863281 10.875 7.863281 10.738281 7.863281 10.601562 C 8 10.601562 8.136719 10.601562 8.277344 10.601562 C 8.34375 10.398438 8.414062 10.195312 8.484375 9.988281 C 8.84375 9.636719 8.84375 9.636719 9.285156 9.273438 C 9.796875 8.851562 10.292969 8.425781 10.757812 7.949219 C 10.691406 7.75 10.621094 7.546875 10.550781 7.339844 C 10.5 6.535156 10.503906 5.734375 10.5 4.929688 C 10.496094 4.710938 10.492188 4.488281 10.488281 4.261719 C 10.476562 2.109375 10.476562 2.109375 11.171875 1.222656 C 12.328125 0.425781 13.179688 0.289062 14.574219 0.304688 Z M 12.621094 2.855469 C 12.621094 3.796875 12.621094 4.738281 12.621094 5.707031 C 15.421875 5.707031 18.21875 5.707031 21.101562 5.707031 C 21.101562 4.765625 21.101562 3.824219 21.101562 2.855469 C 20.570312 2.328125 20.210938 2.394531 19.484375 2.390625 C 19.238281 2.390625 19.238281 2.390625 18.988281 2.390625 C 18.820312 2.390625 18.652344 2.390625 18.480469 2.390625 C 18.121094 2.390625 17.765625 2.390625 17.410156 2.394531 C 16.863281 2.394531 16.316406 2.394531 15.773438 2.390625 C 15.425781 2.390625 15.082031 2.390625 14.734375 2.390625 C 14.488281 2.390625 14.488281 2.390625 14.238281 2.390625 C 13.332031 2.363281 13.332031 2.363281 12.621094 2.855469 Z M 12.128906 9.476562 C 12.015625 9.648438 11.90625 9.816406 11.792969 9.988281 C 11.65625 10.054688 11.519531 10.121094 11.378906 10.191406 C 11.378906 10.328125 11.378906 10.460938 11.378906 10.601562 C 11.242188 10.601562 11.105469 10.601562 10.964844 10.601562 C 10.964844 10.734375 10.964844 10.867188 10.964844 11.007812 C 10.847656 11.054688 10.734375 11.101562 10.613281 11.152344 C 10.019531 11.480469 9.625 11.886719 9.15625 12.371094 C 8.128906 13.402344 7.078125 14.390625 5.902344 15.257812 C 5.339844 15.730469 4.945312 16.210938 4.511719 16.804688 C 4.375 16.992188 4.234375 17.183594 4.089844 17.378906 C 3.605469 18.117188 3.308594 18.683594 3.308594 19.570312 C 4.539062 19.636719 5.769531 19.703125 7.035156 19.773438 C 7.035156 20.175781 7.035156 20.582031 7.035156 20.996094 C 6.410156 21.613281 5.675781 21.5 4.835938 21.53125 C 4.671875 21.539062 4.503906 21.546875 4.332031 21.554688 C 3.921875 21.574219 3.511719 21.589844 3.101562 21.609375 C 3.101562 22.550781 3.101562 23.492188 3.101562 24.460938 C 3.371094 24.472656 3.636719 24.484375 3.910156 24.5 C 4.257812 24.515625 4.605469 24.535156 4.953125 24.550781 C 5.128906 24.558594 5.304688 24.566406 5.484375 24.574219 C 5.652344 24.582031 5.820312 24.59375 5.992188 24.601562 C 6.148438 24.609375 6.300781 24.617188 6.460938 24.625 C 6.828125 24.664062 6.828125 24.664062 7.035156 24.871094 C 7.058594 25.480469 7.058594 25.480469 7.035156 26.09375 C 6.101562 27.011719 4.417969 26.429688 3.101562 26.5 C 3.101562 30.671875 3.101562 34.839844 3.101562 39.136719 C 4.402344 39.207031 5.699219 39.273438 7.035156 39.34375 C 7.035156 39.8125 7.035156 40.285156 7.035156 40.769531 C 6.351562 41.105469 5.589844 41.050781 4.835938 41.085938 C 4.671875 41.097656 4.503906 41.105469 4.332031 41.113281 C 3.921875 41.136719 3.511719 41.15625 3.101562 41.175781 C 3.101562 42.050781 3.101562 42.925781 3.101562 43.828125 C 3.371094 43.839844 3.636719 43.851562 3.910156 43.863281 C 4.257812 43.882812 4.605469 43.898438 4.953125 43.917969 C 5.128906 43.925781 5.304688 43.933594 5.484375 43.941406 C 5.652344 43.949219 5.820312 43.957031 5.992188 43.964844 C 6.226562 43.976562 6.226562 43.976562 6.460938 43.988281 C 6.828125 44.03125 6.828125 44.03125 7.035156 44.234375 C 7.042969 44.640625 7.042969 45.050781 7.035156 45.457031 C 6.296875 45.699219 5.589844 45.734375 4.824219 45.777344 C 4.605469 45.789062 4.605469 45.789062 4.382812 45.804688 C 4.027344 45.824219 3.667969 45.84375 3.308594 45.867188 C 3.75 47.359375 4.585938 48.269531 5.820312 49.214844 C 6.980469 49.835938 8.15625 49.769531 9.445312 49.769531 C 9.644531 49.769531 9.84375 49.769531 10.050781 49.769531 C 10.710938 49.773438 11.371094 49.773438 12.03125 49.773438 C 12.492188 49.773438 12.949219 49.773438 13.410156 49.773438 C 14.371094 49.777344 15.335938 49.777344 16.296875 49.777344 C 17.53125 49.777344 18.765625 49.777344 19.996094 49.78125 C 20.945312 49.785156 21.894531 49.785156 22.84375 49.785156 C 23.296875 49.785156 23.753906 49.785156 24.207031 49.789062 C 24.84375 49.789062 25.476562 49.789062 26.113281 49.789062 C 26.300781 49.789062 26.488281 49.789062 26.683594 49.792969 C 28.429688 49.78125 29.734375 49.371094 31.011719 48.136719 C 31.714844 47.386719 32.136719 46.898438 32.277344 45.867188 C 31.425781 45.667969 30.617188 45.625 29.746094 45.605469 C 29.457031 45.597656 29.167969 45.589844 28.878906 45.582031 C 28.429688 45.570312 27.976562 45.558594 27.527344 45.550781 C 27.089844 45.539062 26.652344 45.527344 26.214844 45.515625 C 25.953125 45.507812 25.691406 45.503906 25.421875 45.496094 C 24.828125 45.457031 24.828125 45.457031 24.621094 45.253906 C 24.613281 44.847656 24.613281 44.4375 24.621094 44.03125 C 25.277344 43.707031 25.984375 43.800781 26.703125 43.808594 C 26.867188 43.808594 27.035156 43.808594 27.203125 43.808594 C 27.730469 43.808594 28.257812 43.8125 28.785156 43.8125 C 29.140625 43.816406 29.5 43.816406 29.855469 43.816406 C 30.730469 43.820312 31.605469 43.824219 32.484375 43.828125 C 32.484375 42.953125 32.484375 42.078125 32.484375 41.175781 C 29.957031 41.042969 27.429688 40.90625 24.828125 40.769531 C 24.621094 40.265625 24.621094 40.265625 24.414062 39.75 C 24.617188 39.449219 24.617188 39.449219 25.035156 39.136719 C 25.613281 39.085938 26.144531 39.066406 26.722656 39.078125 C 26.871094 39.078125 27.015625 39.078125 27.167969 39.082031 C 27.710938 39.082031 28.253906 39.09375 28.796875 39.101562 C 30.621094 39.121094 30.621094 39.121094 32.484375 39.136719 C 32.484375 34.96875 32.484375 30.796875 32.484375 26.5 C 30.050781 26.441406 30.050781 26.441406 27.617188 26.382812 C 27.3125 26.375 27.007812 26.367188 26.703125 26.359375 C 26.546875 26.355469 26.386719 26.355469 26.222656 26.351562 C 25.082031 26.320312 25.082031 26.320312 24.621094 26.09375 C 24.464844 25.710938 24.464844 25.710938 24.414062 25.277344 C 24.617188 24.972656 24.617188 24.972656 24.828125 24.664062 C 25.414062 24.597656 25.957031 24.566406 26.542969 24.5625 C 26.710938 24.558594 26.882812 24.554688 27.054688 24.550781 C 27.597656 24.539062 28.140625 24.53125 28.679688 24.523438 C 29.046875 24.519531 29.414062 24.511719 29.78125 24.503906 C 30.683594 24.488281 31.582031 24.472656 32.484375 24.460938 C 32.484375 23.519531 32.484375 22.578125 32.484375 21.609375 C 30.648438 21.375 28.8125 21.332031 26.964844 21.28125 C 26.601562 21.269531 26.601562 21.269531 26.230469 21.257812 C 25.902344 21.25 25.902344 21.25 25.566406 21.238281 C 25.035156 21.199219 25.035156 21.199219 24.621094 20.996094 C 24.621094 20.59375 24.621094 20.1875 24.621094 19.773438 C 25.265625 19.457031 25.949219 19.542969 26.660156 19.550781 C 26.820312 19.550781 26.980469 19.550781 27.144531 19.550781 C 27.65625 19.550781 28.167969 19.554688 28.679688 19.554688 C 29.027344 19.558594 29.375 19.558594 29.722656 19.558594 C 30.574219 19.5625 31.425781 19.566406 32.277344 19.570312 C 32.132812 18.394531 32.132812 18.394531 31.640625 17.339844 C 31.511719 17.132812 31.378906 16.925781 31.242188 16.714844 C 31.105469 16.714844 30.96875 16.714844 30.828125 16.714844 C 30.773438 16.59375 30.722656 16.472656 30.667969 16.347656 C 30.382812 15.847656 30.113281 15.613281 29.652344 15.269531 C 29.5 15.152344 29.347656 15.035156 29.191406 14.917969 C 29.027344 14.796875 28.863281 14.675781 28.695312 14.550781 C 28.527344 14.421875 28.359375 14.296875 28.183594 14.164062 C 27.84375 13.910156 27.503906 13.65625 27.164062 13.398438 C 26.539062 12.933594 25.914062 12.460938 25.292969 11.988281 C 25.082031 11.828125 24.871094 11.671875 24.65625 11.507812 C 23.921875 10.949219 23.191406 10.386719 22.460938 9.824219 C 22.34375 9.730469 22.226562 9.640625 22.105469 9.546875 C 21.9375 9.417969 21.9375 9.417969 21.765625 9.285156 C 21.652344 9.199219 21.539062 9.113281 21.421875 9.027344 C 21.101562 8.765625 21.101562 8.765625 20.574219 8.203125 C 19.597656 7.402344 18.234375 7.542969 17.03125 7.542969 C 16.769531 7.542969 16.507812 7.539062 16.238281 7.539062 C 14.273438 7.597656 13.289062 7.925781 12.128906 9.476562 Z M 12.128906 9.476562 "/>
<path style=" stroke:none;fill-rule:nonzero;fill:rgb(100%,100%,100%);fill-opacity:1;" d="M 12.136719 43.5625 C 12.296875 43.5625 12.457031 43.5625 12.621094 43.5625 C 12.785156 43.5625 12.949219 43.558594 13.117188 43.558594 C 13.464844 43.558594 13.808594 43.558594 14.15625 43.558594 C 14.6875 43.558594 15.21875 43.554688 15.75 43.550781 C 16.085938 43.550781 16.421875 43.546875 16.757812 43.550781 C 16.996094 43.546875 16.996094 43.546875 17.242188 43.542969 C 17.691406 43.546875 17.691406 43.546875 18.414062 43.625 C 18.859375 44.28125 18.90625 44.492188 18.828125 45.253906 C 18.300781 45.773438 17.960938 45.714844 17.242188 45.722656 C 17.082031 45.722656 16.921875 45.722656 16.757812 45.722656 C 16.59375 45.722656 16.429688 45.722656 16.261719 45.726562 C 15.914062 45.726562 15.570312 45.726562 15.222656 45.726562 C 14.691406 45.726562 14.160156 45.730469 13.628906 45.734375 C 13.292969 45.734375 12.957031 45.734375 12.621094 45.734375 C 12.460938 45.738281 12.300781 45.738281 12.136719 45.742188 C 11.691406 45.738281 11.691406 45.738281 10.964844 45.660156 C 10.519531 45.003906 10.472656 44.792969 10.550781 44.03125 C 11.078125 43.511719 11.417969 43.570312 12.136719 43.5625 Z M 12.136719 43.5625 "/>
<path style=" stroke:none;fill-rule:nonzero;fill:rgb(100%,100%,100%);fill-opacity:1;" d="M 12.136719 38.871094 C 12.296875 38.871094 12.457031 38.875 12.621094 38.875 C 12.785156 38.871094 12.949219 38.871094 13.117188 38.871094 C 13.464844 38.871094 13.808594 38.871094 14.15625 38.871094 C 14.6875 38.871094 15.21875 38.867188 15.75 38.859375 C 16.085938 38.859375 16.421875 38.859375 16.757812 38.859375 C 16.996094 38.859375 16.996094 38.859375 17.242188 38.855469 C 17.691406 38.859375 17.691406 38.859375 18.414062 38.933594 C 18.859375 39.589844 18.90625 39.804688 18.828125 40.566406 C 18.308594 41.078125 17.988281 41.023438 17.277344 41.03125 C 17.125 41.027344 16.96875 41.027344 16.8125 41.027344 C 16.574219 41.027344 16.574219 41.027344 16.332031 41.027344 C 15.996094 41.027344 15.660156 41.027344 15.324219 41.027344 C 14.808594 41.023438 14.292969 41.027344 13.78125 41.027344 C 13.453125 41.027344 13.128906 41.027344 12.800781 41.027344 C 12.648438 41.027344 12.496094 41.027344 12.335938 41.03125 C 11.558594 41.023438 11.214844 41 10.550781 40.566406 C 10.488281 39.953125 10.488281 39.953125 10.550781 39.34375 C 11.078125 38.824219 11.417969 38.882812 12.136719 38.871094 Z M 12.136719 38.871094 "/>
<path style=" stroke:none;fill-rule:nonzero;fill:rgb(100%,100%,100%);fill-opacity:1;" d="M 10.757812 24.460938 C 11.839844 24.453125 12.925781 24.445312 14.007812 24.4375 C 14.375 24.4375 14.742188 24.433594 15.113281 24.429688 C 15.640625 24.425781 16.167969 24.421875 16.699219 24.421875 C 16.945312 24.417969 16.945312 24.417969 17.199219 24.414062 C 17.605469 24.414062 18.007812 24.4375 18.414062 24.460938 C 18.828125 24.871094 18.828125 24.871094 18.90625 25.367188 C 18.828125 25.886719 18.828125 25.886719 18.503906 26.222656 C 17.816406 26.601562 17.285156 26.578125 16.5 26.582031 C 16.355469 26.582031 16.210938 26.582031 16.0625 26.582031 C 15.761719 26.582031 15.457031 26.582031 15.15625 26.578125 C 14.691406 26.578125 14.226562 26.578125 13.765625 26.582031 C 13.46875 26.582031 13.175781 26.582031 12.878906 26.582031 C 12.613281 26.582031 12.34375 26.578125 12.066406 26.578125 C 11.351562 26.496094 11.066406 26.371094 10.550781 25.886719 C 10.621094 25.417969 10.6875 24.945312 10.757812 24.460938 Z M 10.757812 24.460938 "/>
<path style=" stroke:none;fill-rule:nonzero;fill:rgb(100%,100%,100%);fill-opacity:1;" d="M 12.984375 19.125 C 13.136719 19.128906 13.292969 19.132812 13.449219 19.136719 C 13.777344 19.144531 14.101562 19.15625 14.425781 19.167969 C 14.921875 19.1875 15.417969 19.199219 15.917969 19.210938 C 16.234375 19.21875 16.546875 19.230469 16.863281 19.238281 C 17.011719 19.242188 17.160156 19.246094 17.316406 19.25 C 17.734375 19.265625 17.734375 19.265625 18.414062 19.367188 C 18.828125 19.976562 18.828125 19.976562 18.777344 20.613281 C 18.726562 20.808594 18.671875 21 18.621094 21.199219 C 18.089844 21.460938 17.707031 21.429688 17.113281 21.429688 C 16.78125 21.429688 16.78125 21.429688 16.441406 21.433594 C 16.210938 21.429688 15.976562 21.429688 15.738281 21.429688 C 15.511719 21.429688 15.285156 21.429688 15.054688 21.433594 C 13.609375 21.429688 12.191406 21.355469 10.757812 21.199219 C 10.691406 20.730469 10.621094 20.257812 10.550781 19.773438 C 11.292969 19.054688 12.003906 19.085938 12.984375 19.125 Z M 12.984375 19.125 "/>
</g>
</svg>
