<?xml version="1.0" encoding="UTF-8"?>
<svg xmlns="http://www.w3.org/2000/svg" xmlns:xlink="http://www.w3.org/1999/xlink" width="36px" height="36px" viewBox="0 0 36 82" version="1.1">
<g id="surface1">
<path style=" stroke:none;fill-rule:nonzero;fill:rgb(100%,100%,100%);fill-opacity:1;" d="M 11.917969 2.691406 C 12.183594 2.6875 12.449219 2.683594 12.726562 2.679688 C 13.15625 2.679688 13.15625 2.679688 13.59375 2.683594 C 13.890625 2.679688 14.1875 2.679688 14.496094 2.675781 C 15.121094 2.675781 15.75 2.675781 16.378906 2.675781 C 17.335938 2.679688 18.292969 2.671875 19.25 2.664062 C 19.859375 2.664062 20.472656 2.664062 21.082031 2.664062 C 21.367188 2.660156 21.652344 2.65625 21.945312 2.652344 C 23.554688 2.664062 24.675781 2.804688 26.070312 3.699219 C 27.457031 5.113281 27.472656 6.480469 27.480469 8.359375 C 27.476562 8.703125 27.46875 9.046875 27.464844 9.402344 C 27.472656 9.917969 27.472656 9.917969 27.480469 10.445312 C 27.472656 12.367188 27.429688 13.671875 26.070312 15.105469 C 25.863281 15.105469 25.660156 15.105469 25.449219 15.105469 C 25.753906 15.46875 25.753906 15.46875 26.070312 15.835938 C 26.691406 16.648438 26.691406 16.648438 26.691406 17.261719 C 27.152344 17.414062 27.152344 17.414062 27.621094 17.570312 C 28.0625 18.035156 28.0625 18.035156 28.519531 18.628906 C 28.6875 18.847656 28.855469 19.070312 29.03125 19.296875 C 29.292969 19.644531 29.292969 19.644531 29.558594 20 C 29.730469 20.21875 29.902344 20.4375 30.074219 20.667969 C 30.613281 21.375 31.132812 22.09375 31.65625 22.8125 C 31.84375 23.058594 32.03125 23.308594 32.226562 23.5625 C 33.777344 25.746094 34.132812 27.355469 34.050781 29.996094 C 34.046875 30.34375 34.046875 30.695312 34.042969 31.050781 C 34.035156 32.152344 34.007812 33.253906 33.984375 34.351562 C 33.972656 35.097656 33.96875 35.84375 33.960938 36.59375 C 33.945312 37.953125 33.929688 39.3125 33.898438 40.675781 C 33.886719 41.082031 33.886719 41.082031 33.878906 41.5 C 33.828125 42.234375 33.828125 42.234375 33.648438 42.925781 C 33.582031 43.195312 33.582031 43.195312 33.515625 43.464844 C 33.621094 43.566406 33.722656 43.667969 33.828125 43.773438 C 33.855469 44.332031 33.859375 44.890625 33.859375 45.445312 C 33.855469 45.957031 33.855469 45.957031 33.855469 46.480469 C 33.851562 47.019531 33.851562 47.019531 33.847656 47.570312 C 33.84375 47.925781 33.84375 48.28125 33.84375 48.648438 C 33.839844 49.3125 33.835938 49.976562 33.832031 50.636719 C 33.824219 51.921875 33.832031 53.203125 33.839844 54.488281 C 33.839844 55.1875 33.84375 55.886719 33.847656 56.585938 C 33.847656 56.941406 33.851562 57.296875 33.855469 57.660156 C 33.855469 58 33.855469 58.339844 33.859375 58.6875 C 33.859375 59 33.859375 59.308594 33.863281 59.628906 C 33.828125 60.421875 33.828125 60.421875 33.515625 61.347656 C 33.621094 61.550781 33.722656 61.753906 33.828125 61.960938 C 33.863281 62.476562 33.878906 62.992188 33.886719 63.507812 C 33.890625 63.828125 33.898438 64.152344 33.902344 64.484375 C 33.917969 65.957031 33.929688 67.429688 33.9375 68.90625 C 33.941406 69.683594 33.949219 70.460938 33.960938 71.238281 C 33.980469 72.359375 33.984375 73.476562 33.988281 74.597656 C 34 75.117188 34 75.117188 34.011719 75.652344 C 34.003906 78.058594 34.003906 78.058594 33.121094 79.265625 C 31.519531 80.359375 30.386719 80.550781 28.445312 80.542969 C 28.183594 80.542969 27.921875 80.546875 27.65625 80.546875 C 26.792969 80.550781 25.933594 80.550781 25.074219 80.550781 C 24.472656 80.550781 23.875 80.554688 23.273438 80.554688 C 22.019531 80.558594 20.761719 80.558594 19.507812 80.554688 C 17.898438 80.554688 16.292969 80.558594 14.683594 80.566406 C 13.445312 80.570312 12.210938 80.570312 10.972656 80.570312 C 10.378906 80.570312 9.785156 80.570312 9.195312 80.574219 C 8.363281 80.578125 7.535156 80.578125 6.703125 80.574219 C 6.460938 80.574219 6.21875 80.578125 5.964844 80.582031 C 4.128906 80.5625 2.878906 80.121094 1.445312 78.925781 C 0.648438 77.476562 0.761719 76.082031 0.777344 74.457031 C 0.777344 74.113281 0.777344 73.769531 0.777344 73.417969 C 0.777344 72.691406 0.78125 71.96875 0.785156 71.242188 C 0.796875 70.136719 0.792969 69.027344 0.789062 67.917969 C 0.789062 67.214844 0.792969 66.511719 0.796875 65.804688 C 0.796875 65.476562 0.792969 65.144531 0.792969 64.804688 C 0.828125 61.972656 0.828125 61.972656 1.863281 60.730469 C 1.65625 60.730469 1.453125 60.730469 1.242188 60.730469 C 0.945312 59.84375 0.890625 59.28125 0.890625 58.363281 C 0.890625 58.082031 0.890625 57.800781 0.886719 57.511719 C 0.890625 57.21875 0.890625 56.925781 0.890625 56.625 C 0.890625 56.335938 0.890625 56.046875 0.886719 55.75 C 0.890625 54.285156 0.988281 52.929688 1.242188 51.480469 C 1.140625 51.277344 1.035156 51.074219 0.929688 50.863281 C 0.855469 49.808594 0.875 48.746094 0.871094 47.6875 C 0.867188 47.390625 0.867188 47.097656 0.863281 46.796875 C 0.859375 45.300781 0.953125 44.238281 1.550781 42.851562 C 1.347656 42.542969 1.140625 42.238281 0.929688 41.925781 C 0.84375 41.25 0.84375 41.25 0.832031 40.453125 C 0.824219 40.15625 0.820312 39.855469 0.8125 39.550781 C 0.808594 39.226562 0.808594 38.902344 0.804688 38.570312 C 0.800781 38.238281 0.796875 37.902344 0.792969 37.5625 C 0.789062 36.851562 0.785156 36.144531 0.78125 35.4375 C 0.777344 34.363281 0.757812 33.289062 0.738281 32.214844 C 0.734375 31.527344 0.730469 30.839844 0.726562 30.152344 C 0.71875 29.832031 0.710938 29.515625 0.703125 29.1875 C 0.71875 26.808594 1.410156 25.347656 2.792969 23.429688 C 3.109375 22.945312 3.109375 22.945312 3.429688 22.453125 C 3.691406 22.078125 3.691406 22.078125 3.957031 21.695312 C 4.132812 21.4375 4.3125 21.179688 4.496094 20.910156 C 4.648438 20.726562 4.804688 20.539062 4.964844 20.347656 C 5.171875 20.347656 5.375 20.347656 5.585938 20.347656 C 5.667969 20.167969 5.753906 19.992188 5.839844 19.8125 C 6.21875 19.089844 6.648438 18.457031 7.136719 17.800781 C 7.296875 17.585938 7.457031 17.367188 7.621094 17.144531 C 7.769531 16.980469 7.917969 16.816406 8.070312 16.648438 C 8.273438 16.648438 8.480469 16.648438 8.691406 16.648438 C 8.960938 15.953125 8.960938 15.953125 9 15.105469 C 8.800781 14.875 8.601562 14.644531 8.394531 14.40625 C 7.25 12.890625 7.566406 11.078125 7.585938 9.25 C 7.578125 8.855469 7.570312 8.464844 7.5625 8.0625 C 7.566406 5.203125 7.566406 5.203125 8.46875 3.929688 C 9.65625 3.167969 10.484375 2.699219 11.917969 2.691406 Z M 10.550781 6.164062 C 10.417969 6.847656 10.417969 6.847656 10.449219 7.632812 C 10.453125 7.917969 10.453125 8.207031 10.453125 8.503906 C 10.460938 8.808594 10.46875 9.109375 10.472656 9.421875 C 10.476562 9.726562 10.476562 10.027344 10.480469 10.339844 C 10.367188 11.75 10.367188 11.75 10.863281 12.949219 C 11.816406 12.984375 12.765625 13.003906 13.722656 13.011719 C 14.007812 13.011719 14.296875 13.011719 14.59375 13.015625 C 15.203125 13.019531 15.8125 13.019531 16.421875 13.019531 C 17.355469 13.023438 18.289062 13.035156 19.222656 13.042969 C 19.8125 13.046875 20.40625 13.046875 20.996094 13.046875 C 21.277344 13.050781 21.558594 13.054688 21.847656 13.058594 C 22.238281 13.058594 22.238281 13.058594 22.632812 13.058594 C 22.863281 13.058594 23.09375 13.058594 23.328125 13.0625 C 24.027344 12.992188 24.027344 12.992188 24.515625 12.023438 C 24.648438 11.101562 24.617188 10.175781 24.613281 9.25 C 24.621094 8.996094 24.625 8.742188 24.628906 8.480469 C 24.628906 8.238281 24.628906 7.996094 24.628906 7.746094 C 24.632812 7.523438 24.632812 7.300781 24.632812 7.074219 C 24.480469 6.289062 24.203125 6.050781 23.585938 5.550781 C 22.660156 5.460938 21.804688 5.425781 20.878906 5.4375 C 20.617188 5.4375 20.351562 5.4375 20.078125 5.4375 C 19.515625 5.4375 18.957031 5.441406 18.394531 5.445312 C 17.539062 5.453125 16.679688 5.453125 15.820312 5.449219 C 15.277344 5.453125 14.734375 5.453125 14.1875 5.457031 C 13.929688 5.457031 13.675781 5.457031 13.410156 5.457031 C 12.195312 5.46875 11.582031 5.484375 10.550781 6.164062 Z M 10.445312 18.066406 C 10.1875 18.417969 9.9375 18.777344 9.699219 19.144531 C 9.273438 19.78125 8.8125 20.375 8.335938 20.976562 C 7.550781 21.96875 6.78125 22.972656 6.054688 24.007812 C 5.746094 24.4375 5.429688 24.863281 5.101562 25.277344 C 3.765625 27.0625 3.457031 28.375 3.507812 30.574219 C 3.511719 30.863281 3.511719 31.152344 3.511719 31.445312 C 3.511719 32.050781 3.519531 32.65625 3.53125 33.257812 C 3.550781 34.183594 3.550781 35.109375 3.550781 36.035156 C 3.554688 36.621094 3.5625 37.210938 3.566406 37.800781 C 3.570312 38.074219 3.570312 38.351562 3.570312 38.636719 C 3.578125 39.023438 3.578125 39.023438 3.589844 39.414062 C 3.59375 39.640625 3.597656 39.863281 3.601562 40.097656 C 3.761719 40.867188 4.039062 41.132812 4.65625 41.617188 C 5.617188 41.988281 5.617188 41.988281 6.515625 42.234375 C 6.515625 42.742188 6.515625 43.25 6.515625 43.773438 C 6.339844 43.835938 6.164062 43.894531 5.984375 43.953125 C 5.644531 44.074219 5.644531 44.074219 5.296875 44.199219 C 4.953125 44.316406 4.953125 44.316406 4.609375 44.4375 C 3.976562 44.652344 3.976562 44.652344 3.722656 45.316406 C 3.6875 46.089844 3.667969 46.851562 3.664062 47.628906 C 3.664062 47.839844 3.660156 48.054688 3.65625 48.273438 C 3.652344 48.828125 3.6875 49.382812 3.722656 49.941406 C 4.582031 50.792969 5.339844 50.734375 6.515625 50.863281 C 6.515625 51.679688 6.515625 52.492188 6.515625 53.332031 C 6.171875 53.367188 5.824219 53.40625 5.46875 53.445312 C 4.335938 53.53125 4.335938 53.53125 3.722656 54.253906 C 3.644531 55.035156 3.609375 55.769531 3.609375 56.546875 C 3.597656 56.863281 3.597656 56.863281 3.585938 57.183594 C 3.578125 58.195312 3.585938 58.734375 4.296875 59.484375 C 5.089844 59.863281 5.648438 59.875 6.515625 59.804688 C 6.515625 60.515625 6.515625 61.230469 6.515625 61.960938 C 6.339844 62.023438 6.164062 62.082031 5.984375 62.144531 C 5.757812 62.222656 5.53125 62.304688 5.296875 62.386719 C 5.070312 62.464844 4.839844 62.542969 4.609375 62.625 C 3.976562 62.84375 3.976562 62.84375 3.722656 63.503906 C 3.691406 63.925781 3.679688 64.351562 3.675781 64.777344 C 3.671875 65.039062 3.667969 65.300781 3.664062 65.570312 C 3.664062 65.855469 3.664062 66.136719 3.660156 66.429688 C 3.660156 66.722656 3.65625 67.011719 3.65625 67.3125 C 3.652344 67.929688 3.652344 68.546875 3.648438 69.164062 C 3.648438 70.109375 3.636719 71.050781 3.628906 71.996094 C 3.625 72.59375 3.625 73.191406 3.621094 73.792969 C 3.617188 74.074219 3.613281 74.359375 3.609375 74.648438 C 3.613281 74.914062 3.613281 75.175781 3.613281 75.449219 C 3.613281 75.679688 3.609375 75.910156 3.609375 76.148438 C 3.691406 76.773438 3.691406 76.773438 4.042969 77.296875 C 5 77.902344 5.984375 77.808594 7.082031 77.800781 C 7.453125 77.800781 7.453125 77.800781 7.832031 77.800781 C 8.648438 77.804688 9.464844 77.800781 10.28125 77.796875 C 10.847656 77.796875 11.414062 77.796875 11.980469 77.796875 C 13.167969 77.796875 14.359375 77.792969 15.546875 77.789062 C 17.070312 77.78125 18.597656 77.78125 20.121094 77.78125 C 21.292969 77.785156 22.460938 77.78125 23.632812 77.777344 C 24.195312 77.777344 24.757812 77.777344 25.320312 77.777344 C 26.105469 77.777344 26.890625 77.773438 27.675781 77.769531 C 27.910156 77.769531 28.144531 77.769531 28.382812 77.769531 C 29.539062 77.757812 30.046875 77.722656 31.035156 77.066406 C 31.171875 76.445312 31.171875 76.445312 31.140625 75.722656 C 31.140625 75.445312 31.140625 75.167969 31.140625 74.882812 C 31.136719 74.582031 31.128906 74.28125 31.125 73.972656 C 31.125 73.664062 31.121094 73.359375 31.121094 73.042969 C 31.117188 72.058594 31.105469 71.078125 31.09375 70.09375 C 31.089844 69.425781 31.082031 68.761719 31.078125 68.097656 C 31.070312 66.460938 31.054688 64.828125 31.035156 63.195312 C 30.632812 62.988281 30.234375 62.785156 29.832031 62.578125 C 29.496094 62.40625 29.496094 62.40625 29.15625 62.230469 C 28.566406 61.921875 28.566406 61.921875 27.929688 61.960938 C 28.125 61.074219 28.125 61.074219 28.550781 60.113281 C 29.484375 59.707031 29.484375 59.707031 30.414062 59.496094 C 30.617188 59.394531 30.824219 59.292969 31.035156 59.1875 C 31.035156 57.457031 31.035156 55.730469 31.035156 53.949219 C 30.632812 53.828125 30.226562 53.707031 29.8125 53.582031 C 29.128906 53.328125 29.128906 53.328125 28.550781 53.023438 C 28.203125 52.234375 28.203125 52.234375 28.242188 51.480469 C 29.007812 50.722656 29.703125 50.570312 30.722656 50.25 C 31.164062 49.882812 31.164062 49.882812 31.066406 48.832031 C 31.0625 48.371094 31.058594 47.914062 31.054688 47.453125 C 31.050781 47.21875 31.050781 46.988281 31.050781 46.746094 C 31.046875 46.167969 31.039062 45.585938 31.035156 45.007812 C 30.835938 44.9375 30.636719 44.867188 30.433594 44.792969 C 29.667969 44.492188 28.953125 44.191406 28.242188 43.773438 C 27.910156 42.925781 27.910156 42.925781 27.929688 42.234375 C 28.136719 42.234375 28.339844 42.234375 28.550781 42.234375 C 28.550781 42.03125 28.550781 41.824219 28.550781 41.617188 C 28.902344 41.570312 29.253906 41.527344 29.617188 41.480469 C 30.664062 41.429688 30.664062 41.429688 31.035156 41 C 31.066406 40.574219 31.082031 40.144531 31.085938 39.714844 C 31.085938 39.441406 31.089844 39.171875 31.09375 38.890625 C 31.09375 38.59375 31.097656 38.296875 31.097656 37.988281 C 31.097656 37.6875 31.101562 37.382812 31.101562 37.070312 C 31.105469 36.425781 31.109375 35.78125 31.109375 35.132812 C 31.113281 34.148438 31.121094 33.164062 31.132812 32.179688 C 31.132812 31.554688 31.136719 30.929688 31.136719 30.300781 C 31.140625 29.859375 31.140625 29.859375 31.148438 29.410156 C 31.144531 27.34375 31.144531 27.34375 30.101562 25.585938 C 29.898438 25.585938 29.695312 25.585938 29.484375 25.585938 C 29.339844 25.222656 29.339844 25.222656 29.191406 24.855469 C 28.882812 24.070312 28.882812 24.070312 28.550781 23.429688 C 28.347656 23.429688 28.140625 23.429688 27.929688 23.429688 C 27.804688 23.085938 27.804688 23.085938 27.679688 22.734375 C 27.324219 21.921875 26.972656 21.316406 26.378906 20.652344 C 26.175781 20.652344 25.96875 20.652344 25.757812 20.652344 C 25.449219 20.039062 25.136719 19.421875 24.828125 18.804688 C 24.621094 18.804688 24.417969 18.804688 24.207031 18.804688 C 24.207031 18.601562 24.207031 18.398438 24.207031 18.1875 C 24.003906 18.1875 23.796875 18.1875 23.585938 18.1875 C 23.503906 17.992188 23.417969 17.792969 23.335938 17.589844 C 23 16.851562 23 16.851562 22.035156 16.648438 C 22.035156 16.441406 22.035156 16.238281 22.035156 16.03125 C 15.652344 15.230469 15.652344 15.230469 10.445312 18.066406 Z M 10.445312 18.066406 "/>
</g>
</svg>
