<?xml version="1.0" encoding="UTF-8"?>
<svg xmlns="http://www.w3.org/2000/svg" xmlns:xlink="http://www.w3.org/1999/xlink" width="36px" height="36px" viewBox="0 0 36 48" version="1.1">
<g id="surface1">
<path style=" stroke:none;fill-rule:nonzero;fill:rgb(100%,100%,100%);fill-opacity:1;" d="M 27.566406 1.628906 C 27.691406 1.628906 27.820312 1.625 27.949219 1.625 C 28.210938 1.625 28.476562 1.625 28.738281 1.625 C 29.140625 1.628906 29.542969 1.621094 29.945312 1.617188 C 30.203125 1.617188 30.460938 1.617188 30.71875 1.617188 C 30.835938 1.617188 30.957031 1.613281 31.078125 1.613281 C 31.9375 1.625 32.425781 1.847656 33.085938 2.382812 C 33.59375 3.136719 33.492188 3.847656 33.492188 4.734375 C 33.496094 4.902344 33.5 5.070312 33.503906 5.242188 C 33.511719 6.273438 33.425781 6.867188 32.742188 7.660156 C 32.855469 7.660156 32.96875 7.660156 33.085938 7.660156 C 33.363281 7.949219 33.625 8.253906 33.878906 8.5625 C 34.089844 8.816406 34.089844 8.816406 34.304688 9.074219 C 34.628906 9.53125 34.628906 9.53125 34.628906 10.042969 C 34.742188 10.042969 34.855469 10.042969 34.972656 10.042969 C 35.082031 10.332031 35.195312 10.625 35.304688 10.914062 C 35.363281 11.078125 35.425781 11.238281 35.492188 11.40625 C 35.777344 12.285156 35.851562 13.125 35.855469 14.046875 C 35.855469 14.378906 35.855469 14.378906 35.859375 14.71875 C 35.859375 14.960938 35.859375 15.203125 35.859375 15.445312 C 35.859375 15.703125 35.859375 15.960938 35.863281 16.21875 C 35.867188 17.0625 35.867188 17.90625 35.871094 18.75 C 35.871094 19.039062 35.871094 19.332031 35.871094 19.625 C 35.875 20.992188 35.878906 22.363281 35.878906 23.734375 C 35.878906 25.3125 35.886719 26.886719 35.890625 28.464844 C 35.898438 29.6875 35.898438 30.910156 35.898438 32.132812 C 35.902344 32.859375 35.902344 33.585938 35.90625 34.316406 C 35.910156 35 35.910156 35.6875 35.910156 36.375 C 35.910156 36.625 35.910156 36.875 35.914062 37.125 C 35.933594 39.484375 35.675781 41.871094 34.113281 43.746094 C 34.035156 43.851562 33.953125 43.953125 33.871094 44.0625 C 33.675781 44.308594 33.46875 44.539062 33.257812 44.765625 C 33.144531 44.765625 33.03125 44.765625 32.914062 44.765625 C 32.914062 44.878906 32.914062 44.992188 32.914062 45.105469 C 32.597656 45.34375 32.597656 45.34375 32.164062 45.605469 C 31.957031 45.734375 31.957031 45.734375 31.742188 45.867188 C 30.25 46.585938 28.859375 46.714844 27.214844 46.707031 C 26.882812 46.707031 26.882812 46.707031 26.546875 46.710938 C 25.945312 46.714844 25.34375 46.714844 24.742188 46.710938 C 24.238281 46.710938 23.730469 46.714844 23.226562 46.714844 C 22.035156 46.714844 20.847656 46.714844 19.65625 46.714844 C 18.429688 46.710938 17.207031 46.714844 15.984375 46.71875 C 14.929688 46.722656 13.875 46.722656 12.816406 46.722656 C 12.191406 46.722656 11.5625 46.722656 10.933594 46.726562 C 10.230469 46.730469 9.53125 46.726562 8.828125 46.722656 C 8.523438 46.726562 8.523438 46.726562 8.210938 46.730469 C 5.925781 46.707031 4.058594 46.015625 2.398438 44.441406 C 0.394531 42.285156 0.0898438 39.804688 0.109375 36.964844 C 0.105469 36.699219 0.105469 36.4375 0.105469 36.175781 C 0.105469 35.46875 0.105469 34.761719 0.109375 34.054688 C 0.109375 33.3125 0.109375 32.570312 0.109375 31.824219 C 0.109375 30.578125 0.109375 29.332031 0.113281 28.085938 C 0.117188 26.648438 0.117188 25.210938 0.117188 23.773438 C 0.117188 22.382812 0.117188 20.996094 0.117188 19.605469 C 0.121094 19.019531 0.121094 18.429688 0.121094 17.839844 C 0.117188 17.148438 0.121094 16.453125 0.125 15.761719 C 0.125 15.507812 0.125 15.253906 0.125 15 C 0.121094 13.28125 0.15625 11.75 1.027344 10.210938 C 1.140625 10.210938 1.253906 10.210938 1.371094 10.210938 C 1.347656 10.074219 1.320312 9.9375 1.296875 9.796875 C 1.421875 8.785156 2.125 8.0625 2.867188 7.390625 C 4.253906 6.53125 5.59375 6.566406 7.183594 6.578125 C 7.429688 6.578125 7.679688 6.578125 7.925781 6.578125 C 8.445312 6.578125 8.964844 6.578125 9.480469 6.582031 C 10.140625 6.585938 10.800781 6.585938 11.460938 6.582031 C 11.972656 6.582031 12.484375 6.585938 12.996094 6.585938 C 13.238281 6.585938 13.484375 6.585938 13.726562 6.585938 C 17.21875 6.585938 17.21875 6.585938 18.226562 7.519531 C 18.332031 7.613281 18.4375 7.707031 18.542969 7.804688 C 18.960938 8.289062 19.238281 8.804688 19.542969 9.363281 C 22.09375 9.699219 22.09375 9.699219 24.425781 9.007812 C 25.054688 8.242188 25.054688 8.242188 25.160156 7.296875 C 25.019531 6.933594 25.019531 6.933594 24.6875 6.46875 C 24.613281 5.910156 24.628906 5.347656 24.632812 4.789062 C 24.628906 4.632812 24.625 4.480469 24.625 4.324219 C 24.621094 2.847656 24.621094 2.847656 25.199219 2.210938 C 25.988281 1.734375 26.660156 1.625 27.566406 1.628906 Z M 26.230469 3.574219 C 26.203125 4.015625 26.195312 4.433594 26.207031 4.871094 C 26.207031 4.992188 26.210938 5.113281 26.210938 5.238281 C 26.214844 5.535156 26.222656 5.832031 26.230469 6.128906 C 26.96875 6.496094 27.957031 6.328125 28.777344 6.328125 C 29.140625 6.328125 29.507812 6.332031 29.871094 6.335938 C 30.105469 6.335938 30.335938 6.335938 30.566406 6.335938 C 30.78125 6.335938 30.992188 6.339844 31.207031 6.339844 C 31.734375 6.351562 31.734375 6.351562 32.058594 5.957031 C 32.113281 5.398438 32.113281 5.398438 32.101562 4.765625 C 32.101562 4.550781 32.101562 4.335938 32.101562 4.117188 C 32.113281 3.558594 32.113281 3.558594 31.714844 3.234375 C 31.1875 3.179688 31.1875 3.179688 30.566406 3.1875 C 30.453125 3.1875 30.34375 3.1875 30.226562 3.1875 C 29.988281 3.1875 29.75 3.1875 29.511719 3.191406 C 29.144531 3.191406 28.777344 3.191406 28.414062 3.1875 C 28.179688 3.1875 27.949219 3.1875 27.71875 3.1875 C 27.402344 3.1875 27.402344 3.1875 27.078125 3.191406 C 26.550781 3.183594 26.550781 3.183594 26.230469 3.574219 Z M 27.085938 7.828125 C 27.085938 7.941406 27.085938 8.054688 27.085938 8.171875 C 26.914062 8.171875 26.746094 8.171875 26.570312 8.171875 C 26.3125 8.554688 26.3125 8.554688 26.058594 9.019531 C 25.699219 9.507812 25.375 9.871094 24.898438 10.246094 C 24.710938 10.398438 24.710938 10.398438 24.515625 10.554688 C 24.515625 10.664062 24.515625 10.777344 24.515625 10.894531 C 24.289062 10.949219 24.0625 11.007812 23.828125 11.0625 C 23.828125 11.175781 23.828125 11.289062 23.828125 11.402344 C 16.925781 11.402344 10.023438 11.402344 2.914062 11.402344 C 2.625 12.261719 2.527344 12.710938 2.527344 13.574219 C 2.523438 13.6875 2.523438 13.800781 2.523438 13.914062 C 2.519531 14.285156 2.519531 14.65625 2.523438 15.027344 C 2.519531 15.292969 2.519531 15.5625 2.519531 15.828125 C 2.515625 16.554688 2.515625 17.277344 2.515625 18 C 2.515625 18.453125 2.511719 18.90625 2.511719 19.359375 C 2.507812 20.941406 2.507812 22.527344 2.507812 24.109375 C 2.507812 25.578125 2.503906 27.050781 2.5 28.523438 C 2.496094 29.789062 2.492188 31.054688 2.492188 32.324219 C 2.492188 33.078125 2.492188 33.832031 2.488281 34.585938 C 2.484375 35.300781 2.484375 36.011719 2.488281 36.722656 C 2.488281 36.980469 2.488281 37.242188 2.484375 37.5 C 2.46875 39.714844 2.785156 41.402344 4.371094 43.035156 C 5.457031 43.96875 6.671875 44.445312 8.097656 44.449219 C 8.371094 44.453125 8.371094 44.453125 8.648438 44.453125 C 8.847656 44.453125 9.046875 44.457031 9.25 44.457031 C 9.566406 44.457031 9.566406 44.457031 9.886719 44.460938 C 10.582031 44.460938 11.28125 44.464844 11.976562 44.464844 C 12.214844 44.464844 12.457031 44.46875 12.695312 44.46875 C 13.824219 44.472656 14.953125 44.472656 16.078125 44.476562 C 17.378906 44.476562 18.679688 44.480469 19.976562 44.488281 C 20.984375 44.492188 21.992188 44.496094 22.996094 44.496094 C 23.597656 44.496094 24.195312 44.5 24.796875 44.503906 C 25.46875 44.507812 26.136719 44.507812 26.808594 44.503906 C 27.003906 44.507812 27.203125 44.511719 27.40625 44.511719 C 28.96875 44.503906 30.132812 44.128906 31.351562 43.136719 C 31.535156 42.992188 31.535156 42.992188 31.722656 42.839844 C 32.671875 42.027344 33.335938 41.199219 33.507812 39.929688 C 33.535156 39.214844 33.535156 38.507812 33.527344 37.792969 C 33.527344 37.519531 33.527344 37.246094 33.53125 36.972656 C 33.53125 36.234375 33.527344 35.496094 33.519531 34.757812 C 33.515625 33.984375 33.515625 33.207031 33.515625 32.433594 C 33.515625 31.132812 33.507812 29.835938 33.503906 28.535156 C 33.492188 26.703125 33.488281 24.871094 33.484375 23.039062 C 33.484375 21.769531 33.480469 20.496094 33.476562 19.226562 C 33.476562 18.917969 33.476562 18.609375 33.472656 18.304688 C 33.472656 17.425781 33.46875 16.550781 33.464844 15.671875 C 33.460938 15.40625 33.460938 15.140625 33.460938 14.878906 C 33.460938 14.515625 33.457031 14.152344 33.453125 13.789062 C 33.453125 13.585938 33.453125 13.382812 33.453125 13.175781 C 33.425781 12.574219 33.351562 11.996094 33.257812 11.402344 C 33.144531 11.402344 33.03125 11.402344 32.914062 11.402344 C 32.917969 11.300781 32.925781 11.199219 32.929688 11.089844 C 32.914062 9.816406 32.433594 9.222656 31.546875 8.328125 C 31.375 8.167969 31.375 8.167969 31.199219 8 C 31.144531 7.945312 31.085938 7.886719 31.027344 7.828125 C 30.734375 7.816406 30.441406 7.8125 30.148438 7.8125 C 29.972656 7.8125 29.792969 7.8125 29.613281 7.816406 C 29.425781 7.816406 29.238281 7.816406 29.046875 7.820312 C 28.859375 7.820312 28.671875 7.820312 28.480469 7.820312 C 28.015625 7.824219 27.550781 7.828125 27.085938 7.828125 Z M 3.769531 9.019531 C 3.660156 9.191406 3.546875 9.359375 3.429688 9.53125 C 8.066406 9.53125 12.707031 9.53125 17.484375 9.53125 C 17.289062 8.945312 17.074219 8.765625 16.53125 8.480469 C 15.582031 8.164062 14.550781 8.242188 13.558594 8.25 C 13.308594 8.25 13.058594 8.25 12.808594 8.246094 C 12.289062 8.246094 11.765625 8.25 11.246094 8.25 C 10.582031 8.253906 9.914062 8.253906 9.246094 8.25 C 8.734375 8.246094 8.21875 8.246094 7.703125 8.25 C 7.457031 8.25 7.214844 8.25 6.96875 8.246094 C 6.625 8.246094 6.28125 8.25 5.9375 8.253906 C 5.644531 8.253906 5.644531 8.253906 5.34375 8.253906 C 4.671875 8.359375 4.300781 8.601562 3.769531 9.019531 Z M 3.769531 9.019531 "/>
</g>
</svg>
